/* XPM */
static char *_838e6f1a3db4e0ddf319c11efb1ec1e7KyVxb2oSoVNouCg[] = {
/* columns rows colors chars-per-pixel */
"128 128 6 1 ",
"  c #910000",
". c red",
"X c #FFBF00",
"o c #FF8000",
"O c #4A3231",
"+ c white",
/* pixels */
"  .XX..oXXXXXXXoo... O .oXXoo. .  ..  oXX. OOOOOOOOO  .ooXXooXXXoXXXXXXXoooooXXXXo..OOOO .XXo OOOO .oXX..OOOOOOOOOO..XXXooXXX. O",
" .oXX. .oXXXXXXXXo...   .XXXoo..o..o...XX. O  OOOOO ..ooXXXXXXXXXXXooooo.OOO..oXXXo.OOOO oXXo OOOO .oXXo OOOOOOOOOO  oXXXXXXo O ",
"..XXX. O.oXXooXXXooo... .oXXXoXooooXoo.XX..... O O  .oXXXXoXXXooooo. OOOOOOOOO.oXXX.  OO .XXo OOOO .XX.. OOOOOOOOOOO .oXXXoo.OO ",
".oXXo OO oXX..ooXXXXXoo.oXXXXXXXXXXXooXXXooo.o.. ...oXXXo..oXXX. OOOOOOOOOOOOO ..XXo..OO .XXo OOO .oXXo OOOOOOOOOOOO .oXXo.OOOO.",
".XXXo OO .XXo. ..oXXXoXooXXo.ooooooXXXXXXXXoooooooooXXX. O  oXXo. OOOOOOOOOOOOO .XXXo. O .XXo OOO .XXX.  O   O OO    .oXX. OOO .",
".XXo.OOO .XXo. OO.ooXXXXXX..OOOOOO..ooXXXXXXXXXXXXoXXXo. OO oXXX.. OOOOOOOOOOOOO..XXo.   oXXo O  .oXXo ..  ... ..  ..oXXo. OOO .",
"oXX. OOO ..XX.  OOO..oXXXo OOOOOOOOO oXXo.oooXXXXXXXo..OOOOO oXXo. OOOOOOOOOOOOOO..XXo.  oXXo   ..oXX.oo..ooo.o..ooooXXXo OOO .o",
"XXX. OO  ..XXo.  OOO oXX..OOOOOOOOO .oXXo OO .oooXXo.   OOOO oXXoo. OOOOOOOOOOOOO .XXXo. .XXo...ooXX.ooooXXXXoXXoooXXXXo..OOO .X",
"XXo. OO .oXXXoo.  OO.oXXo OOOOOOOOO ooXX. OOOOO oXXX. . .  O ..XXX. OOOOOOOOOOOOOO .XXXo .XXo.ooXXXXXoXXXXXXXXXXXXXXXXXXo.  O..X",
"XX. O  .oXXXXXXo.  ..XXXo OOOOOOOO .oXXo.OOOOOOO.oXXo....... . oXXo. OOOOOOOOOOOOO ..XXo..XXooXXXXXXXXXooooooooooooo..XXoo.. .oX",
"XX.  ..oXXXooXXXo...oXXo  OOOOOOOO .XXX. OOOOOOO .XXooooooooo...XXX.  OOOOOOOOOOOOO .XXXooXXXXXXoooXXXo.  OO  O OOO O oXXXo. .XX",
"Xo.  .oXXX...oXXoo..oXX. OOOOOOOOO .XXo OOOOOOOOO .XXXXXXoXXXooooXXo.  OOOOOOOOOOOOO.oXXooXXXoo. O..XXXo.  OOOOOOOOOOO .XXXo.oXX",
"Xo ..oXXXo  O .XXXooXX..OOOOOOOOO .oXXo OOOOOOOOO oXXoooXXXXXXXXXXXX..   OOOOOOOOOOOO.oXXXXoo  OOO ..XXXo.  OOOOOOOOOO .oXXXoXXX",
". .oooXX. OOOO..XXXXXX. OOOOOOOOO .XXXo OOOOOOOOO oXXo ..ooooXXXXXXXooo.  O OOOOOOOO .oXXo.  OOOOOOO oXXXo.  OOOOOOOOOOO.oXXXXX.",
"o.oXXXXo.OOOOOO oXXXX. OOOOOOOOOO oXX.. OOOOOOOOO oXX. OO O ..ooooXXXXoo..... OOOOO .oXXX. OOOOOOOOO  oXXXo.  OOOOOOOOOO .oXXXX.",
".oXXXo.. OOOOOO  .oXXo OOOOOOOOOO.oXXo OOOOOOOOOO oXXo. O. ...oooooXXXXoXo.o.. OOOO..oXX..OOOOOOOOOOOO oXXXo.  OOOOOOOOOOO.ooXX.",
"oXXXo  OOOOOOOOOO oXXo. OOOOOOOO .XXXo OOOOOOOOOO .XXX.  .oooXoXXXXXooXXXooXo.. .. .oXXXo OOOOOOOOOOOOO.oXXXo.  OOOOOOOOOOO .XXo",
"XXX..OOOOOOOOOOOO .XXXo OOOOOOO .oXXo.OOOOOOOOOOO ..XX...oXXXXXXXoo....oXXXXXoooo. oXXXo. OOOOOOOOOOOOOO oXXXo.  OOOOOOOOOO .XXX",
"XX. OOOOOOOOOOOOO ..XXo OOOOOOO .XXXo OOOOOOOOOOOO oXXoooXXXXXoo. OOOOO.oooXXXXoXoooXXo.OOOOOOOOOOOOOOOOO oXXXo. OOOOOOOOOOO .XX",
"X. OOOOOOOOOOOOOOO .XX.  O   O  oXX..  OOOOOOOOOOO .XXXXXXXooo OOOOOOOOOOO.ooXXXXooXXX. OOOOOOOOOOOOOOOOOO oXXXo. OOOOOOOOOO .XX",
"Xo OOOOOOOOOOOOOOO oXXo........ooXX.o.    OOOOOOOO oXXXXoo. OOOOOOOOOOOOOOOO .ooXXXXXo. OOOOOOOOOOOOOOOOOO .oXXXo..OOOOOOOOO .XX",
"X.   OOOOOOOOOOOO  oXXo.ooo...ooXXXXoooo..   OOOOO .XXoo  OOOOOOOOOOOOOOOOOOOOO .oXXXo..   OOOOOOOOOOOOOOOOO..XXXo. OOOOOOOO oXX",
"X.. ...O     O  O ..oXXoXoXoooXXXXXXXooXoo...   O .oXXo OOOOOOOOOOOOOOOOOOOOOO  .oXXXooo..   OOOOOOOOOOOOOOO .oXXoo..OOOOOOO .XX",
"Xo..oo.  ..  .  ..ooXXXXXXXXXXXXooooXXXXXoo.....  .oXX. OOOOOOOOOOOOOOOOOOOOO  .oXXXXXXoooo..   OOOOOOOOOOOOOO.oXXXo.  OOOO .oXX",
"XXXXXoooo.ooo....oXXXXooooooXXXo OO oooXXXXoXo....oXXo.OOOOOOOOOOOOOOOOOOOOOO .oXXXXXXXXXXooo.. . OOOOOOOOOOOO ..XXoo. O   .oXXX",
"XXXXXXXXoXoXoXXXoXXXoo OOO .oXXo OOOO  .oXXXXXXooo.XX. OOOOOOOOOOOOOOOOOOOOO .oXXX..XXoXXXXXXo.....O   O OOOOOO ..XXXo.. .ooXXXX",
".ooooXXXXXXXXXXXXXXo OOOOOO .XXo OOOOOOO..ooXXXXXXoXXo OOOOOOOOOOOOOOOOOOOO .oXXXo oXXX.ooXXXXoXoo..  . .  O   OO..XXXoooooXXXoo",
" O  .XXooooooooooXX. OOOOOO .XXo. OOOOOOOOO oooXXXXXXo OOOOOOOOOOOOOOOOOOO..oXXX. O oXXo...oXXXXXooo.o.oo. ... . ..oXXooooXXX.  ",
"OOO oXXo OOOOOO oXX. OOOOOO .XXXo OOOOOOOOOOOO ooXXXXo OOOOOOOOOOOOOOOOO  .oXXX.. O oXXoo O..ooXXXoXXXoXXooo.ooo..ooXXXXXXXoo. O",
"OOO .XXo. OOOOO oXX. OOOOOOO oXXo OOOOOOOOOOOOO ..oXXo. OOOOOOOOOOOOOOOO..oXXXo. OOO..XXo.OOOO.ooXXXXXXXXXXoooXoXoXXXXooXX.. OOO",
"OOO oXXX. OOOOO oXXo OOOOOOO .XXo.OOOOOOOOOOOOOOO oXXo. OOOOOOOOOOOOOOO .oXXXo.OOOOO oXXoo OOOO  ooXXoooXXXXXXXXXXXXoo.oXXo OOOO",
"OOOO..XXo OOOOO .XX. OOOOOOO .XXXo OOOOOOOOOOOOOOO..XXo. OOOOOOOOOOOOO .ooXXo.OOOOOOO..XXo. OOOOO .XXXo..oooooXXXooo.O .XX. OOOO",
"OOOO oXXo OOOOO .XX. OOOOOOOO.oXX. OOOOOOOOOOOOOOO .XXXo OOOOOOOOOOO ..ooXXo OOOOOOOO .XXoo. OOOOO oXXX. O  .XXX.  OOO oXXo OOOO",
"OOOO oXXo.OOOOO oXXo OOOOOOOO oXXo OOOOOOOOOOOOOOOO.oXXo. OOOOOOO O  .oXXX.  OOOOOOOOO oXXX. OOOOOO.oXXo.. .oXXo. OOOO .XX. OOOO",
"OOOO oXXo. OOOO oXXo OOOOOOOO .XXo. OOOOOOOOOOOOOOO .XXX. OOOO    . .oXXX.. OOOOOOOOOO  oXXo.OOOOOO .XXXo..oXXX. OOOOO .XX. OOOO",
"OOOO oXXX. OOOO oXXo OOOOOOOO .XXXo..O OOOOOOOOOOOO  oXXo.       ...oXXX..OOOOOOOOOOOOO oXXX..OO   O.oXXX.oXXXo.OOOOOO .XX. OOOO",
"OOOOO.oXXo OOOO .XXo OOOOOOOO .oXXoo.   OOOOOOOOOO  ..XXX..  ..ooooXXXX. OOOOOOOOOOOOOOO.oXXo.. ...  ..XXooXXo. OOOOOO .XX..OOOO",
"OOOOO oXX. OOOO .XXo OOOOOO  .oXXXXXo..  OOOOO     ..ooXXoo.oooXoXXXXXoo. OOOOOOOOOOOOOO oXXXo.o...oo.oXXoXX.  OOOOOOO .XXo. OOO",
"OOOOO oXX. OOO  .XX. OOOOOO .ooXXXXXXXo.       ...oooXXXXXXoXXoXXXXooXXXo  OOOOOOOOOOOOOO.oXXXXoooooXoooXXX..OOOOOOOOO oXXX. OOO",
"OOOOO .XXo. O  ..XX.   OO  .oXXX..oXXXXoo.....o.ooXoXXXooXXXXXXXoo.  .XXo.. OOOOOOOOOOOOO .XXXXXXXXXXXXXXXXo OOOOOOOOO .oXXo OOO",
"OOOOO oXXX.  ..ooXXoo.    .oXXXo O..oXXXoooo.oXXoXXXXo. .ooXXooo  OO .XXXo. OOOOOOOOOOOOO .XXXoooooooooooXX..OOOOOOOOOO oXXo OOO",
"OOOOOO.oXX....oXXXXooo. ..oXXX.. OOO oXXXooXoXXXXXoo..OOO oXX. OOOOO  oXXXo.OOOOOOOOOOOOO .oXXo    OO O .XXo. OOOOOOOOO oXXo OOO",
"OOOOOO .XX.oooXXXXXXXXoo.ooXX.  OOOOO ooXXXXXXXoo..OOOOOO oXX.  OOOOOO.oXXX.  OOOOOOOOOOOO .XX. .       .XXXo OOOOOOOOO oXX. OOO",
"OOOOOO oXXoXXXXXooooXXXoXXXX. OOOOOOOOO.oXXXoo. OOOOOOOOO .XXo.. OOOOOO.oXXo.  OOOOOOOOOOO .XXooooo....  oXX. OOOOOOOOO .XX. OOO",
"OOOOOO .XXXXXXoo.  ..XXXXXXo OOOOOOOOO .oXXo. OOOOOOOOOOO oXXoo.. OOOOO oXXXo. OOOOOOOOOOO oXXooooooXoo.o.XXo. OOOOOOOO .XXo OOO",
"OOOOO ..XXXXo. OOOOO .oXXoo.OOOOOOO  ..oXXXo OOOOOOOOOOO .oXXXXo. OOOOOO.oXXXo.OOOOOOOOOOO.oXXXXXXXXXoXXoXXXo. OOOOOOOO oXXo OOO",
"OOOO  .oXXX.  OOOOOOO oXXX. OOOOO . ..oXXXo OOOOOOOOOOOO .oXXXXXo.. OOOOO .XXX.  OOOOOOOO .oXXooooooXXXXXXXXXo..  OOOOO oXXo OOO",
"OOOO .oXXX. OOOOOOOOOO oXX. OOO . ..oooXXX. OOOOOOOOOOOO oXXo.XXXo.. OOOOO..XXo.  OOOOOOO oXXXo  O  oooooooXXXo.. O     oXX. OOO",
"OO  .oXXX. OOOOOOOOOOO oXXo.    .ooXXXXXXX. OOOOOOOOOOOO .XX. .XXXo.  OOOO oXXXo..OOOOOOO oXXo OOOOOOOOOOO oXXXXo. ..  .oXXo OOO",
"O  .ooXXo  OOOOOOOOOOO oXXX.  .ooXXXXXooXX. OOOOOOOOOOOO .XXo  .XXXo. OOOOO oXXXo. OOOOO .oXX. OOOOOOOOOOO ..XXXoo.o.o.o.XX. OOO",
"O .oXXX..OOOOOOOOOOOOOO..XXo..oXXXXXoo.oXXo.OOOOOOOOOOOO .XXo O .XXXo.. OOOO.oXXX.  OOO  .oXX.  OOOOOOOOOOOO..oXXXoXoooooXXo.  O",
" .oXXX..O OOOOOOOOOOOOO oXXooXXXXXo..  .XXo. OOOOOOOOOOO oXX. O  oXXXo.  OOO  .XXo. OO  .oXXo.... OOOOOOO  ..oXXXXXXXXXXXXXXo.. ",
".oXXX.. .   O O    O    .XXXXXXXo.. OOO..XX. OOOOOOOOOOO..XXo OOO..XXoo.  OOO oXXXo.....ooXXooo... OOOO   ..oXXXXoooooooooXXXo..",
"oXXX.oo.... .... ..   .  .XXXXo..  OOOO oXXo OOOOOOOOO  .oXXo  OOO..XXXo.  OOO .XXXo...oXXXXXXXooo.   O  .oooXXo.. OOOOOO oXXXoo",
"XXXoXooXooo.o.o.ooooo.o..oXXo. . ....  .oXXo  OOOOOOO ..oXXXo.  OOO.oXXXo.  O  ..XXXoXXXXXooXXXXoXoo. ..oooXXX. OOOOOOOOOO..XXXX",
"XXXXXXXXXXXXoXXoXoXXXooooXXXXo.......ooooXXo.  OOOOOO .oXXXXoo. OOOO.oXXXo.  .ooXXXXXXXXX....ooXXXoXoo.ooXXXo.  OOOOOOOOOO  oXXX",
"oooooooooXXXXXXXXXXXXXXXXXXXXXoXoXXXXXXooXXoo.. OOO ..oXXX.XXXo. OOO  .XXXo..oXXXXXooXXoo OOOO ooXXXXoXoXXXo  OOOOOOOOOOOOO .XXo",
"o.  OOOO.oooooooooooooXXXX..XXXXXXXXXXXXXXXXoo..  O..oXXXo..XXXo.   O .oXXXooXXXXoo.oXXo. OOOOOO.ooXXXXXXoo.OOOOOOOOOOOOO  .oXXo",
"oo. OOOOOOO OOOOOOOO  .oXX..ooXXXooooooooXXXXXXo.  .oXXXo O..XXXo. ..   oXXXoXXoo.O .XXoo OOOOOOOO .ooXX. OOOOOOOOOOOOOO  .oXXXX",
"Xoo. OOOOOOOOOOOOOOOO .oXXo O..XXo.   .oXXXoXXXXoo.oXXXo.OOO oXXXoo..... oXXXXo.OOOO..XXo OOOOOOOOOO .XXo OOOOOOOOOOOO   .oXXXXX",
"XXoo. OOOOOOOOOOOOOO  .XXX. O oXXXo. .oXXX..ooXXoXoXXXo OOOOO..XXooXoo..oooXX.. OOOO .XXo OOOOOOOOOO .XXo OOOOOOOOOOO  ..oXXXXXX",
".XXo. OOOOOOOOOOOO O .oXX.. O ..XXXo.oXXXo.O .oXXXoXXo. OOOOO  .XXXXXoXXoXXXo. OOOOO .XXo OOOOOOOOO .oXX. OOOOOOOOO ...ooXXXoXXo",
".XXXo. OOOOOOOOOOO  .ooXXo  OOO.oXXXoXXX..OOOO .oXXX..OOOOOOOO .oXXoXXXXXXXo. OOOOOO .XXo. O OOO O  .XXX. OOOOOOOO  .ooXXXX.oXXo",
"..XXXo.   OOOOOOO .ooXXXXo.. OOO .XXoXXo.OOOOOO .oXX. OOOOOOOO oXXX.ooooXXo. OOOOOOO oXXXo  . O . ..oXXo. OOOOOO   .oXXXXoooXX..",
"  oXXXo....      .ooXXXXXXoo.. O  oXXX. OOOOOOO .XXX. OOOOOOOO oXXo.OO oXXX. OOOOOOO ..XX....  ...oXoXXXo. OOOOO .ooXXXXo .oXX. ",
"   oXXXooo..  ...oXXXXoXXXXXo.  O .XXo. OOOOOOO .XX..OOOOOOOOO.oXX. OOO..XX. OOOOO  .oXXXoXoooooXXXXXXXXo. OO   .oXXXXo.. .oXXo ",
" OO..XXoXooo...oXXXXo..XXoXXoo. O .XXoo OOOOOOO .XXo OOOOOOOOO.oXXo OOO .XX. OOO  ..oXXXXXXXXooXXXXXoooXXo.    .oXXXXo.OO .oXX. ",
" OO .oXXXXXXoXXXXXXo. oXX..XXXo. ...XX..  OOOOO .XXo OOOOOOOO .XXX. OOO oXXo. O  ..ooXXXXXoXXXXXXooo. .XXoo. .ooXXXo.. OO oXXo. ",
"OOOO .XXooXXXXXXXo. ..oXX. .XXXoo.oXXXoo..  OOO oXX. OOOOOOOO .XX.. OOO oXXX.....ooXXX..XX..ooXX..OOO ..XXXo.oooXXo OOOOO .XX. O",
"OOOO .XXo..ooXXXo...oXoXXo  .XXXooXXXXXooo. OO  oXXo OOOOOOOO oXXo OOOO  .XX.ooooXXXXo .XXo  .XXo. OOO  .XXooXXXX..OOOOO .oXXo O",
"OOOO .XX. OO..XXXoooXXXXX. O.oXXXXXXoXXXooo.....oXXo  OOOOOO .oXX. OOOO  oXXXXXXXXXoo. .XXo  oXXX. OOOO  .XXXXXoo OOOOOO .XXXo O",
"OOOO .XXo OOO .XXoXXXXoXX. O.ooXXoo..ooXXXXo...oXXXoo.   O   .oXXo OOO  .oXXXXXXXX.  O .XXo.O.oXX. OOO . ..XXX.. OOOOOOO .XXo  O",
"OOOO .XXo OOO  .XXXXo..XXo  .XXXo OOO .ooXXXXXooXXXooo.... ...XX..OOOO .oXXXooooXXo. O oXXo.O oXXo.   ..o.oXXo OOOOOOOOO oXX. OO",
"OOOO oXXo.OOO  oXXXo ..XXo..oXXo. OOO  .ooXXXXXXXXXXXXXoo.o...XX.    ..oXXXo.O oXXX. O .XXXo  oXXX....ooXXXXXo. OOOOOOO .oXXo OO",
"OOOO .XXo.OO   ..XXo..oXXo.ooXX. OOO  .oooXXoooXXoooXXXXooXXooXXoo. ..oXXX.  O .oXXo. O.oXXo O.oXX...oooXXXXXo.  OOOOOO .XXXo OO",
"OOOO oXXX.  ..oooXXXoo..XX.XXX.  OO .oooXXXo..XXXo ..ooXXXXXXXXXXXoo.ooXXo OOOO .XXoo.  .XX. O .XXooXXXXXoo.XXo. OOOOOO .XX..OOO",
"OOOOO oXX.  .ooXXXXXXXooXXoXX..OO ..ooXXXo.. oXX. OOO oXXooooooXXXXoooXXo OOOOO  .XXXo  .XX. O .XXXXXXXoo  oXXXo.OOOOOO..XXo OOO",
"OOOOO .XX...oXXXXoooXXooXXXXX..  ..oXXXXo  O .XX. OOO oXXo.OOO..oXXXoXXo.OOOOOOOO oXXo. oXX.   oXXXXooo OOO.oXXX. OOOO .oXXo OOO",
"OOOOO oXX.ooXXXoo O..XXXXXXXXo...ooXXXo..OOO .XX. OOO oXXX. OOOO .oXXXo. OOOOOO O oXXX. oXXo. .oXXo.. OOOOOO .XXo.OOOO ooXX. OOO",
"OOOOO oXXXoXXX.. OO .oXXoooXXooooXXXXo.OOOO .oXX. OOOO..XX. OOOOOO .XXX. O  O . . .oXXo..XXoo.ooXXo OOOOOOOO oXXo..OOO .XXo.OOOO",
"OOOOO oXXXXXo. OOOO oXXXo  .XXXXXXXoo. OOOO .oXX. OOOO .XX. OOOOOO .oXX.   . ..o.oooXXooooXXoooXXo OOOOOOOOOO.oXXo. OO .XX. OOOO",
"OOOOO .XXXo. OOOOO .oXXo O ..oXXXXo.OOOOOOO oXX..OOOOO .XXo OOOOOOO .XXo..o.oooXXoXXXXXXXXXXooXX. OOOOOOOOOOO .XXXo.  .oXXo OOOO",
"OOOO .oXXo.OOOO O .oXXXo OOOO oXXo  OOOOOOO .XXo  O O  .XX. OOOOOOO oXXX.ooooXXXXXXXoooXXXXXoXX.  OOOOOOOOOOO .oXXXo ..XXX. OOOO",
"OOOO .XXX. OOO  ..ooXXo.OOOOO .XXo OOOOOOOO oXX....  . oXXo.OOOOOOOO.oXXoXXXXXXooooo O..oXXXXXX. OOOOOOOOOOOOO  .XXooo.XX..OOOOO",
"OOOO oXX. OO  ...ooXXXo. OOOO oXXo. OOOOOOO .XXooo......XXXo OOOOOO .oXXXXXoooo.OO OOOO ..oXXXo OOOOOOOOOOOOOO  .XXXXXoXXo  OOOO",
"OOOO oXXo  . .oooXXXXXXo..OOO .XXX. OOOOOOO.oXXXXoXXoXooXXXo OOOOO .ooXXoo..  OOOOOOOOOOOO..XXo.OOOOOOOOOOO   ..oXXXXXXXXo.   OO",
"OOO .oXXo..o.ooXXXXooXXXo..    .XXo OOOOOO .XXXXXXXXXXXXXXXo. OOOO .XXXXXXoo.  OOOOOOOOOOO .XXo. OOOOOOOO   ..ooXXXoooXXXXoo.  O",
" OO .XXX.ooXoXXXXo. ..XXXo.  O oXX. OOOO ..oXXoooooooooooXXo. OO  .oXX.oXXXoo..  OOOOOOOOO oXXX. OOOOOOOO ..oXXXXXo.O..oXXXXo.  ",
".   oXXooXoXXXXoo OOO.oXXXoo.  oXXo. OOO ..oXXo... OOOOO..XXo.   .ooXX..ooXXXo.. O OOOOO  ..oXXo. OOO   ...ooXXXo. OOO ..XXXoo..",
"o.. .XXooXXXooo.OOOOO  oXXXoo...XXX.   ..ooXXXXo..   OOO .XXXo. .ooXX..OO..XXoo...  OOO  ..oXXXXo.. O ...ooXXXo.. OOOOOO.ooXXXoo",
"ooo.oXXXXXo. OOOOOOOOOO oXXXXo...XXo  ..oXXXXXXXXo.. OO  ..XXXo..oXXo  OOO.oXXoXo..   ...oXXXXXXXoo. ..oXXXXXo  OOOOOOOOOO .XXXX",
"XoXoXXXXoo.OOOOOOOOOOOO .ooXXXo..XXo..oXoXXoooXXXXoo.. ...ooXXoooXXo. OOOO .XXXXXoo....oXoXXXooXXXXo.ooXXXXo.  OOOOOOOOOOOO .oXX",
"XXXXXXoo. OOOOOOOOOOOOOOO .oXXXo.XXX.oXXXX..  .oXXXXoo..ooXoXXXXXXX. OOOOO.oXXoXXXXoooooXXXo. .oXXXXoXXXXXoo. OOOOOOOOOOOOOOO oX",
"ooXXXo.OOOOOOOOOOOOOOOO    ..XXooXXXXXXXoo.OOOO ooXXXooooXXXXXoXXX. OOOOO..oXXoooXXooXXXXoo.OO .ooXXXXXooXXoo. OOOOOOOOOOOOOO ..",
"O .XXo OOOOOOOOOOOOOO  . .ooXXXXXXXXXXXo.OOOOOOOO oXXXXXXXXoo. oXXo. OOO .oXX..O .XXXXXo. OOOOOO .oXXo...oXXXo..OOOOOOOOOOOOOOO ",
"O .XX. OOOOOOOOOOOO . ..ooooXXXooooXXo..OOOOOOOOO ..oXXXoo..OO oXXX. OOO .oXX. O  .XXX.  OOOOOOOO oXXo O ..XXXo.. OOOOOOOOOOOOOO",
"O .XXo. OOOOOOOOO   .ooXoXXXXoo. O oXXo OOOOOOOOOOO oXX.. OOOO .oXXo.   .oXX..OO .oXX.. OOOOOOOOO .XXo OO ..XXXo.  OOOOOOOOOOOOO",
"O oXXo. OOOOOOOO  ..oXXXXXXo..OOOO oXX. OOOOOOOOOOO oXXo  O     oXXoo.. .XXXo OO .XXX. OOOOOOOOOO oXX. OOO  oXXXo.  OOOOOOOOOOOO",
"O ..XX. OOOO   ...ooXXXXooo.OOOOOO .XXo. OOOOOOOOOO.oXXo. . .   .XXXoo.ooXX.. OO oXXo  OOOOOOOOOO oXX. OOOOO.oXXXo.  OOOOOOOOOOO",
"OO .XX. O O  ...oXoXXXo. OOOOOOOOO .XXXo   O OOOOOO.oXXo..o.o.o..oXXXXoXXXX...  .oXXo   OOO  OO O .XX. OOOOOO oXXXo.  OOOOOOOOOO",
"OO oXXo  .  .ooooXXXoo OOOOOOOOOOOO oXX...     OOO .XXXooXXoooXXooXXXXXXXXoo..  .oXX....   ........XXo. OOOOOO..XXXo. OOOOOOOOOO",
"OO oXXo..o.ooooXXXo. OOOOOOOOOOOOOO .XXo.ooo...  . .XXXXXXXXXXXXXXX..oooXXXoooo.oXX..ooo.oo.ooo...oXXX. OOOOOOO..XXoo.  OOOOOOOO",
"OO oXXXoooXXXXXXo..OOOOOOOOOOOOOOOO .XXXoXoooooooo.oXXoooooooooooXX. OO.ooXXXoXoXXXoooooooooXoooXXooXXo  OOOOOOO..XXXo.  OOOOOOO",
"O .oXXXXXXXXXXo.. OOOOOOOOOOOOOOOOO .XXXXXXXXXoooooXXXo OOOOOO .oXXo OOOO..oXXXoXXXXXXXXXXXXXXXXXXXXXXo. OOOOOOOO.oXXXo.  OOOOOO",
" .oXXXooooXXooo. OOOOOOOOOOOOOOOOO .oXXoooooXXXXXXXXX.. OOOOOO.oXXo.OOOOOOO .oXXXXooooooooooooooooXXXXoo.  OOOOOOO .XXXo. OOOOO ",
" oXXX..   oXXooo.  OOOOOOOOOOOOOOO .XXXo OO oooooXXXXo..OOOOO oXXXo OOOOOOOOO..XXo. OOOOOOO   .ooXXX.XXXo. OOOOOOOO.oXXoo.   O  ",
".oXX..OOOO.oXXXXo..  OOOOOOOOOOOOO.oXXo. OOOOOOO .oXXXo. OOOO oXXo  OOOOOOOOO .XXX. OOOOOO   .ooXXX. oXXoo.  OOOOOO .oXXXo. .. .",
"oXXX. OOOO ..oXXXo..  OOOOOOOOOOO .oXXo OOOOOOOOOO oXXXo  OO .oXXo OOOOOOOOOOO .XX. O O O  ..ooXXo. O.oXXXo.  OOOOOO .oXXXo....o",
"XXXo. OOOOOO  .XXXXo..OOOOOOOOOOO .XXXo OOOOOOOOOOO.oXXo.   ..oXXo   O    OOO  oXXo.     ..ooXXXo OOOO..XXXo.  OO     ..XXooooXX",
"XXo  OOOOOOOO  .XXXXo..  O    O  .oXX. OOOOOOOOOOOO .XXXo. .ooXXo  . .    .   .oXXo.o..oo.oXXXXo OOOOOO .XXXo.      ..oooXXXXXXX",
"XX. OOOOOOOOOO  .oXXoo...   . ....oXX. OOOOOOOOOOOOO .XXXooooXXXoooooo..o...ooo.XXoXoXXXoXXXXoo OOOOOOOO .XXXo. .o..ooXXXXXXXooX",
"XXo.OOOOOOOOOOOO  oXXXXooooo.ooooXXXX. OOOOOOOOOO     .XXXoXXXXXXooXXXoXXoooXoooXXXXXXXXXXXXo  OOOOOOOOO  oXXXo.oXXoXXXXXoooo..X",
"XXXo OOOOOOOOOOOO  oXXXooooXXXooXXXXo.  OOOOOO O  . .ooXXXXXXooXXXXXXXXXXXXXXXXXXXooooooooXXo.  OOOOOOOOOO .XXXoXXXXXXooo  OO .X",
"oXX. OOOOOOOOOOOOOO.ooXXXXXXXXXXXXXXXo. OOOOO  . ...oXoXXXooo ..XXooooooooooooooXXo OOOO oXXXo..OOOOOOOOOOO.oXXXXXoooo OOOOOO .o",
"oXX. OOOOOOOOOOOOOOOO..XXoooooooo..XXXo.  O  ..oooXooXXXXo.OOO .XXo. OOOOOOOOO oXXo OOOO oXXXXo.  OOOOOOOO .oXXoo..OOOOOOOOOOO .",
"oXX. OOOOOOOOOOOOOOOO.oXX. OOOOOO  oXXo.  ..o.oooXXXXXoXXX. OOO oXXo. OOOOOOOO oXX. OOOO oXXXXXo. OOOOOOO  .XXX. OOOOOOOOOOOOO o",
"oXXo. OOOOOOOOOOOOOO .XXX. OOOOOOOO oXXoo..ooXXXXXXooo .XXo OOO oXXX. OOOOOOO .oXXo OOOO .XXoXXXo.  OOOOO .oXXo  OOOOOOOOOOOOO o",
".XXo. OOOOOOOOOOOOOO .XX.  OOOOOOOO .XXXoXXXXXXXoo..OO oXX. OOOO.oXXo. OOOOOO .oXX. OOOO oXX..XXXo. OOOO .oXXXo.. OOOOOOOOOOOO o",
"..XXo OOOOOOOOOOOOOO oXXo OOOOOOOOO ..XXXXXXXoo.. OOOO .XX. OOO  oXXoo.OOOOOO oXX.. OOOO oXXo..XXXo.  O  .XXXXXo.  OOOOOOOOOOOO.",
" oXX. OOOOOOOOOOOOO  oXX. OOOOOOOOOOO..XXoooo  OOOOOOO .XXo OO ...oXXX.  OOOO .XX. OOOOO oXXo  .XXXo. O .oXX.XXXo. OOOOOOOOOOOO ",
" .XX.  OOOOOOOOOOO  .oXX. OOOOOOOOOOO .XX. OOOOOOOOOOO .XX.   ..oXXXXXo.  OOO oXXo OOOOO oXX. O.oXXXo. .oXXXo.XXoo.  OOOOOOOOOO ",
".oXXo.. OOOOOOO  ..oooXX. OOOOOOOOOOO oXX. OOOOOOOOOOO oXXo..oooXXXXXXoo..OOO oXXo OOOOO oXXo OO..XXXo.ooXX.. oXXoo.  OOOOOO   .",
"oXXXXo.   OOO  ..ooXXXXXo. OOOOOOOOOO .XXo OOOOOOOOOOO .XXoooXoXXXo..XXXo.    .XXo OOOOO .XX. OOO oXXXooXX..OO..XXXo.. OOOO  ..o",
"oXXXXXo.. O  ...ooXXXXXXX.  OOOOOOOOO .XXo OOOOOOOOOOOO .XXoXXXXo.. .oXXXo.   oXX. OOOOO .XX. OOOO.oXXXXXXo OO ..XXoo. OOO  ..oX",
"XXo.XXXo... ..ooXXXXo.oXXo. OOOOOOOOO oXX. OOOOOOOOOOOO oXXXXXoo    . oXXXooo.oXX. OOOOO .XX. OOOOO.oXXXXo OOOO  .XXXo. OO .ooXX",
"Xo.oXXXXXo.ooooXXXo.  oXXXo. OOOOOOOO .XXo OOOOOOOOOOOO oXXXo.. ..ooo.ooXXXooooXXo OOOOO oXXo OOOOOO.oXXo.OOOOOOO .XXXo. ..oXXXX",
"o oXXXXXXXXXoXXXoo.OOO .XXX..       O .XXo OOOOOOOOOO  .oXX..ooo.oooXooXXXXXXXXXXo OOOOO .XX. OOOOO .XXX. OOOOOOOO..XXXo..oXXXo.",
"  .XX..oXXXXXXoo..  OOO.oXXo...... .  .XX. OOOOOOOOO  .ooXXoooXXXXXXXXXXoooooXXXXo. OOOO .XXo OOOO .oXX. OOOOOOOOOO..XXXoooXXo. "
};
